# xmcd
#
# Track frame offsets:
#   150
#   12530
#   22457
#   33732
#   44712
#   57377
#
# Disc length: 895 seconds
#
# Revision: 1
# Processed by: cddbd v1.4PL0 Copyright (c) Steve Scherf et al.
# Submitted via: Media_Universe 3.0
#
DISCID=5b037d06
DTITLE=Barbara Mandrell - Entertainer Of The Year
DYEAR=1997
DGENRE=Country
TTITLE0=Midnight Oil
TTITLE1=How Can It Be Wrong (When It Feels So Right)
TTITLE2=Something
TTITLE3=Show Me
TTITLE4=A Very Special Love Song
TTITLE5=After Closing Time
EXTD=Six Great Hits
EXTT0=
EXTT1=
EXTT2=
EXTT3=
EXTT4=
EXTT5=
PLAYORDER=
